<?xml version="1.0" encoding="UTF-8" standalone="no"?>
<!DOCTYPE svg PUBLIC "-//W3C//DTD SVG 1.1//EN" "http://www.w3.org/Graphics/SVG/1.1/DTD/svg11.dtd">
<svg xmlns="http://www.w3.org/2000/svg" version="1.1" viewBox="0 0 278 294">
<path fill="#ffffff" d="
  M 107.63 46.70
  A 1.09 1.09 0.0 0 1 108.48 47.75
  L 108.53 52.15
  Q 108.56 54.53 106.25 55.07
  C 100.29 56.48 95.20 57.84 92.19 63.54
  C 91.03 65.72 90.78 68.90 90.11 71.57
  A 1.14 1.13 -7.4 0 1 89.54 72.30
  C 84.10 75.15 78.82 72.79 73.31 77.80
  C 69.29 81.45 68.08 86.89 62.05 87.97
  Q 57.80 88.73 53.42 88.78
  A 1.44 1.44 0.0 0 1 51.97 87.33
  C 52.06 72.63 62.24 59.11 74.38 51.91
  Q 89.80 42.76 107.63 46.70
  Z"
/>
<path fill="#ffffff" d="
  M 53.59 94.53
  C 58.90 95.00 64.48 95.17 69.15 92.89
  C 73.92 90.56 75.75 84.96 79.27 82.51
  C 80.97 81.33 83.94 81.12 86.97 80.88
  Q 96.46 80.14 97.97 70.69
  C 98.39 68.10 99.16 66.30 100.97 64.76
  C 103.49 62.63 107.69 63.05 109.95 61.68
  Q 116.12 57.94 115.91 50.59
  A 0.92 0.92 0.0 0 1 117.23 49.73
  Q 132.91 57.37 140.40 73.04
  A 0.69 0.69 0.0 0 1 139.75 74.02
  Q 127.69 73.61 126.13 85.40
  A 1.19 1.16 74.1 0 1 125.73 86.14
  Q 123.43 88.14 121.27 90.00
  C 113.86 96.40 114.35 107.99 120.99 114.39
  C 123.59 116.90 128.40 119.28 131.92 121.72
  A 0.91 0.91 0.0 0 1 132.05 123.10
  Q 124.16 131.19 113.44 134.95
  A 0.82 0.81 -20.0 0 1 112.41 134.48
  Q 110.04 128.21 103.93 125.42
  Q 101.51 124.31 101.50 121.65
  C 101.47 115.99 100.88 110.37 96.88 106.13
  Q 86.72 95.36 72.16 100.88
  C 66.58 102.99 60.03 102.66 54.15 102.42
  A 2.03 2.02 -4.3 0 1 52.25 100.80
  L 51.46 96.90
  Q 50.94 94.29 53.59 94.53
  Z"
/>
<path fill="#ffffff" d="
  M 142.36 81.17
  A 1.99 1.98 4.5 0 1 143.74 82.78
  Q 146.11 99.20 138.90 114.02
  Q 137.99 115.88 136.08 115.10
  C 128.54 112.00 119.76 106.37 124.77 96.54
  C 125.93 94.27 130.67 92.68 132.27 89.19
  Q 133.76 85.93 134.19 82.33
  A 0.98 0.98 0.0 0 1 134.78 81.55
  Q 138.45 79.98 142.36 81.17
  Z"
/>
<path fill="#ffffff" d="
  M 210.75 87.58
  C 220.04 87.64 230.65 88.07 235.72 97.17
  C 238.70 102.52 238.23 109.50 234.75 114.37
  C 230.69 120.06 221.27 123.68 214.05 127.06
  C 207.53 130.12 208.81 139.16 209.16 144.99
  A 0.70 0.68 81.0 0 1 208.65 145.71
  Q 205.53 146.55 202.68 145.27
  A 1.00 0.98 9.8 0 1 202.09 144.45
  C 201.49 137.53 202.00 128.85 207.13 123.93
  C 214.89 116.51 232.03 115.62 230.67 104.56
  Q 229.54 95.44 219.43 95.44
  Q 186.35 95.45 153.57 95.08
  A 1.77 1.77 0.0 0 1 151.82 93.35
  L 151.72 89.41
  A 1.17 1.16 -1.7 0 1 152.85 88.22
  Q 182.50 87.39 210.75 87.58
  Z"
/>
<path fill="#ffffff" d="
  M 66.97 109.27
  Q 71.24 108.85 75.25 107.36
  C 82.20 104.79 88.80 106.04 92.53 112.78
  C 96.04 119.14 91.64 126.56 99.32 131.09
  C 101.51 132.38 105.53 133.94 104.20 137.29
  A 0.83 0.82 8.6 0 1 103.50 137.80
  C 81.54 139.57 65.25 128.91 54.97 110.39
  A 0.51 0.51 0.0 0 1 55.33 109.64
  C 59.32 108.95 63.98 109.57 66.97 109.27
  Z"
/>
<path fill="#ffffff" d="
  M 165.91 184.98
  A 3.93 3.93 0.0 0 1 161.98 188.91
  L 33.98 188.91
  A 3.93 3.93 0.0 0 1 30.05 184.98
  L 30.05 149.64
  A 3.93 3.93 0.0 0 1 33.98 145.71
  L 161.98 145.71
  A 3.93 3.93 0.0 0 1 165.91 149.64
  L 165.91 184.98
  Z
  M 55.92 175.75
  L 59.33 180.79
  A 1.16 1.13 73.6 0 0 60.24 181.30
  L 67.95 181.57
  A 0.73 0.73 0.0 0 0 68.69 180.98
  Q 71.32 167.73 72.50 154.25
  A 0.74 0.73 15.2 0 0 72.08 153.53
  Q 68.96 152.07 65.49 152.33
  A 0.66 0.65 0.5 0 0 64.88 152.92
  L 63.18 169.35
  Q 62.88 172.33 61.17 169.87
  C 60.22 168.50 55.04 158.07 53.03 162.30
  Q 50.40 167.85 48.28 170.67
  A 0.79 0.79 0.0 0 1 47.47 170.96
  C 46.57 170.74 44.63 155.60 44.24 153.50
  A 1.35 1.34 82.0 0 0 42.80 152.41
  L 37.59 152.88
  A 0.70 0.70 0.0 0 0 36.95 153.62
  Q 37.31 158.93 38.20 164.17
  C 39.07 169.24 39.40 175.19 40.78 180.64
  A 0.86 0.85 86.6 0 0 41.51 181.29
  Q 45.54 181.81 49.53 180.92
  A 1.44 1.44 0.0 0 0 50.39 180.35
  L 53.67 175.73
  A 1.37 1.37 0.0 0 1 55.92 175.75
  Z
  M 104.79 170.48
  L 99.36 162.35
  Q 97.86 160.11 96.36 162.35
  C 95.81 163.16 91.33 170.73 90.62 170.96
  A 0.59 0.58 -13.5 0 1 89.85 170.49
  L 87.39 153.24
  A 0.81 0.81 0.0 0 0 86.70 152.56
  Q 83.45 152.17 80.44 153.41
  A 0.79 0.79 0.0 0 0 79.96 154.24
  L 83.40 179.56
  A 1.97 1.97 0.0 0 0 85.29 181.26
  L 91.89 181.42
  A 1.25 1.21 21.7 0 0 92.81 181.04
  C 94.19 179.57 96.25 174.20 98.29 174.90
  A 1.45 1.44 -6.0 0 1 99.05 175.51
  L 102.22 180.63
  A 1.10 1.10 0.0 0 0 103.06 181.15
  L 110.64 181.72
  A 0.78 0.77 -77.0 0 0 111.43 181.22
  Q 112.27 179.01 112.75 175.75
  Q 114.36 164.83 115.52 153.91
  A 0.75 0.74 6.3 0 0 114.87 153.10
  L 108.76 152.37
  A 0.60 0.60 0.0 0 0 108.09 152.90
  C 107.78 155.52 106.86 169.37 105.58 170.57
  A 0.53 0.52 -38.3 0 1 104.79 170.48
  Z
  M 141.62 175.05
  L 145.06 180.62
  A 1.22 1.20 74.8 0 0 146.02 181.18
  L 154.25 181.58
  A 0.71 0.71 0.0 0 0 155.00 180.97
  L 158.72 154.67
  A 1.43 1.42 7.7 0 0 157.48 153.05
  L 152.16 152.38
  A 0.83 0.82 6.5 0 0 151.24 153.11
  L 149.32 170.54
  A 0.68 0.68 0.0 0 1 148.33 171.07
  C 146.75 170.26 143.52 163.83 142.24 162.38
  Q 140.35 160.25 138.91 162.71
  L 134.61 170.05
  A 0.73 0.73 0.0 0 1 133.73 170.37
  C 132.48 169.92 130.86 155.71 130.47 153.51
  A 1.34 1.34 0.0 0 0 129.03 152.42
  L 123.47 152.94
  A 0.66 0.65 83.7 0 0 122.88 153.68
  L 126.50 179.65
  Q 126.76 181.51 128.63 181.51
  L 135.56 181.50
  A 0.93 0.93 0.0 0 0 136.36 181.04
  L 139.95 175.06
  A 0.98 0.97 44.5 0 1 141.62 175.05
  Z"
/>
<path fill="#ffffff" d="
  M 203.08 152.70
  C 208.06 151.98 214.50 152.30 212.51 159.69
  A 0.78 0.76 -81.7 0 1 211.76 160.26
  L 200.62 160.22
  A 1.99 1.98 78.7 0 1 198.81 159.01
  C 197.33 155.49 199.67 153.19 203.08 152.70
  Z"
/>
<path fill="#ffffff" d="
  M 201.15 167.48
  A 1.22 1.22 0.0 0 1 202.21 168.70
  L 202.11 181.58
  A 1.16 1.15 -10.9 0 1 201.38 182.65
  C 195.61 184.95 195.02 189.62 194.70 195.23
  A 0.66 0.66 0.0 0 1 194.09 195.85
  Q 184.47 196.50 174.82 196.09
  A 1.57 1.56 -89.0 0 1 173.32 194.53
  C 173.20 179.00 184.95 165.36 201.15 167.48
  Z"
/>
<path fill="#ffffff" d="
  M 209.67 167.45
  C 226.35 166.19 238.08 178.33 237.67 194.87
  A 1.17 1.17 0.0 0 1 236.50 196.01
  L 218.56 195.99
  A 1.97 1.97 0.0 0 1 216.63 194.33
  L 215.78 188.98
  Q 215.42 186.68 213.60 185.23
  L 209.71 182.11
  A 1.30 1.28 19.6 0 1 209.24 181.14
  L 208.93 168.26
  A 0.79 0.79 0.0 0 1 209.67 167.45
  Z"
/>
<rect fill="#ffffff" x="-3.71" y="-10.56" transform="translate(205.52,199.14) rotate(-0.5)" width="7.42" height="21.12" rx="3.56"/>
<path fill="#ffffff" d="
  M 236.32 203.20
  A 1.35 1.34 0.0 0 1 237.65 204.52
  C 238.02 221.52 239.19 235.97 223.87 247.24
  Q 221.79 248.77 220.22 246.73
  C 212.29 236.43 197.96 237.54 190.27 247.52
  A 1.28 1.27 34.9 0 1 188.57 247.82
  C 172.33 237.54 172.79 222.61 173.56 204.97
  Q 173.64 203.07 175.54 203.06
  L 192.92 202.99
  A 1.61 1.61 0.0 0 1 194.50 204.30
  C 195.85 211.53 196.87 217.77 206.26 216.99
  C 213.90 216.36 215.93 211.00 216.82 204.32
  A 1.54 1.54 0.0 0 1 218.36 202.98
  L 236.32 203.20
  Z"
/>
<path fill="#ffffff" d="
  M 212.94 249.10
  Q 216.32 251.89 211.99 252.57
  Q 205.10 253.65 198.31 252.30
  Q 194.86 251.61 197.51 249.29
  Q 205.11 242.63 212.94 249.10
  Z"
/>
</svg>
