<?xml version="1.0" encoding="UTF-8" standalone="no"?>
<!DOCTYPE svg PUBLIC "-//W3C//DTD SVG 1.1//EN" "http://www.w3.org/Graphics/SVG/1.1/DTD/svg11.dtd">
<svg xmlns="http://www.w3.org/2000/svg" version="1.1" viewBox="0 0 1169 461">
<path fill="#4db5ff" d="
  M 148.86 163.99
  A 1.24 1.23 89.9 0 1 149.86 165.00
  Q 150.39 168.17 149.57 171.24
  A 1.07 1.05 -2.8 0 1 148.90 171.97
  C 146.14 173.00 142.77 173.49 140.51 174.53
  Q 132.77 178.11 132.04 187.32
  Q 131.81 190.27 128.88 190.67
  C 123.19 191.46 117.20 191.44 113.45 196.45
  C 107.27 204.71 105.87 205.78 95.10 206.25
  Q 93.05 206.34 93.22 204.29
  Q 94.36 190.92 102.41 180.94
  Q 120.16 158.94 148.86 163.99
  Z"
/>
<path fill="#4db5ff" d="
  M 172.89 238.61
  A 1.51 1.50 38.6 0 1 173.16 240.95
  Q 165.30 248.72 154.79 252.26
  A 0.78 0.78 0.0 0 1 153.81 251.79
  Q 152.49 248.15 149.76 245.61
  C 148.29 244.25 145.44 243.05 143.60 241.12
  A 1.60 1.57 19.7 0 1 143.18 240.25
  C 142.72 236.75 142.82 232.69 141.82 229.66
  C 138.37 219.11 126.84 214.12 116.26 217.43
  C 110.17 219.34 101.44 221.30 94.74 219.37
  A 1.20 1.19 85.2 0 1 94.01 218.75
  Q 92.73 216.06 93.04 213.08
  A 1.18 1.17 -86.8 0 1 94.22 212.02
  C 101.10 212.04 107.56 212.97 113.23 208.36
  C 117.91 204.55 118.07 199.19 125.49 198.55
  C 129.27 198.22 133.33 197.82 136.16 195.14
  C 139.60 191.88 138.41 186.74 141.36 183.20
  C 144.21 179.78 148.00 180.50 150.90 179.19
  C 156.06 176.85 157.08 172.43 157.59 167.20
  A 0.41 0.41 0.0 0 1 158.17 166.87
  Q 174.34 174.43 181.98 190.55
  Q 182.44 191.52 181.37 191.41
  Q 173.27 190.64 169.44 197.03
  C 167.89 199.63 168.40 203.11 165.34 205.16
  C 157.37 210.51 154.83 220.58 159.88 228.60
  C 162.61 232.95 168.30 235.75 172.89 238.61
  Z"
/>
<path fill="#4db5ff" d="
  M 183.83 198.34
  A 1.49 1.48 -2.4 0 1 185.20 199.59
  Q 187.76 216.13 180.54 231.04
  Q 180.09 231.97 179.93 232.15
  A 1.65 1.64 32.3 0 1 178.00 232.58
  C 168.31 228.25 157.43 220.28 170.60 210.29
  Q 175.02 206.93 175.28 200.89
  Q 175.42 197.78 178.52 197.99
  L 183.83 198.34
  Z"
/>
<path fill="#4db5ff" d="
  M 244.07 204.91
  C 256.88 205.00 276.93 203.02 279.09 220.39
  C 280.88 234.72 266.18 239.61 256.11 244.33
  C 248.67 247.82 250.87 255.99 250.65 262.40
  A 0.67 0.67 0.0 0 1 250.16 263.02
  Q 246.79 264.00 244.04 262.24
  A 1.14 1.14 0.0 0 1 243.52 261.36
  C 242.34 241.00 251.18 239.20 266.77 231.27
  C 277.72 225.68 271.77 212.05 260.47 212.66
  Q 256.94 212.85 256.89 212.85
  Q 225.97 212.75 194.99 212.62
  A 1.40 1.40 0.0 0 1 193.64 211.59
  Q 192.90 208.92 193.40 206.22
  A 0.79 0.78 4.0 0 1 194.15 205.58
  Q 219.15 204.75 244.07 204.91
  Z"
/>
<path fill="#4db5ff" d="
  M 421.00 270.79
  C 420.15 271.04 402.76 312.24 400.84 316.67
  A 1.96 1.96 0.0 0 1 399.23 317.84
  Q 390.10 318.72 380.95 317.87
  A 1.63 1.60 80.9 0 1 379.62 316.89
  Q 370.18 294.43 360.57 272.44
  Q 360.11 271.40 359.77 271.13
  Q 358.76 270.33 358.76 271.75
  L 358.52 315.53
  Q 358.52 316.00 358.70 316.44
  Q 359.03 317.25 358.22 317.92
  A 1.40 1.38 -63.8 0 1 357.36 318.22
  L 335.96 318.24
  Q 333.99 318.24 333.99 316.27
  L 334.02 216.73
  Q 334.02 214.49 336.27 214.49
  L 355.95 214.52
  Q 357.63 214.52 358.32 216.05
  L 389.47 285.49
  A 0.39 0.39 0.0 0 0 390.13 285.59
  Q 392.82 282.42 394.01 279.72
  Q 408.19 247.39 422.85 215.28
  A 0.90 0.88 -79.7 0 1 423.59 214.76
  Q 434.43 213.90 445.25 214.61
  A 0.99 0.99 0.0 0 1 446.17 215.56
  Q 446.69 230.94 446.49 246.33
  C 446.18 269.83 446.52 293.21 446.51 317.10
  A 1.12 1.12 0.0 0 1 445.39 318.22
  L 423.26 318.18
  A 1.18 1.18 0.0 0 1 422.08 317.01
  L 421.73 271.34
  A 0.57 0.57 0.0 0 0 421.00 270.79
  Z"
/>
<path fill="#4db5ff" d="
  M 710.31 318.03
  A 1.39 1.38 -88.5 0 1 709.00 316.64
  L 709.00 216.07
  A 1.26 1.26 0.0 0 1 710.19 214.81
  Q 727.42 213.69 744.29 214.59
  Q 757.28 215.27 763.79 217.96
  C 780.69 224.95 789.26 246.47 781.81 263.45
  C 773.59 282.21 753.27 285.48 735.05 284.14
  Q 732.50 283.95 732.50 286.51
  L 732.50 317.38
  A 0.66 0.66 0.0 0 1 731.87 318.04
  Q 721.10 318.56 710.31 318.03
  Z
  M 759.81 256.06
  C 762.09 250.13 760.99 241.44 754.52 238.45
  C 748.41 235.64 741.00 236.53 734.33 236.23
  A 1.75 1.74 -88.6 0 0 732.50 237.98
  L 732.50 263.69
  A 0.50 0.50 0.0 0 0 732.97 264.19
  C 742.18 264.73 756.20 265.46 759.81 256.06
  Z"
/>
<path fill="#4db5ff" d="
  M 583.96 241.18
  L 598.86 241.36
  A 0.92 0.92 0.0 0 1 599.77 242.29
  L 599.65 259.48
  A 0.65 0.64 -90.0 0 1 599.02 260.12
  L 585.36 260.33
  Q 583.33 260.36 583.32 262.39
  Q 583.20 276.68 583.24 292.49
  C 583.26 301.20 593.32 299.29 598.58 298.24
  A 1.32 1.32 0.0 0 1 600.16 299.52
  L 600.29 315.11
  Q 600.31 317.04 598.43 317.47
  C 578.65 321.98 560.02 318.68 560.23 293.87
  Q 560.37 277.71 560.09 261.95
  A 1.67 1.65 1.1 0 0 558.51 260.32
  L 551.33 259.95
  Q 549.32 259.85 549.34 257.84
  L 549.55 242.45
  A 0.72 0.71 84.4 0 1 550.11 241.76
  C 553.79 240.97 559.59 242.67 559.90 238.76
  Q 560.41 232.33 560.20 224.72
  A 1.63 1.63 0.0 0 1 561.83 223.04
  L 581.13 223.04
  Q 583.21 223.04 583.22 225.12
  L 583.33 240.54
  A 0.64 0.63 90.0 0 0 583.96 241.18
  Z"
/>
<path fill="#4db5ff" d="
  M 102.06 226.69
  Q 109.95 227.28 117.21 224.50
  C 126.79 220.83 135.19 226.65 135.55 236.71
  C 135.75 242.41 136.66 246.99 142.34 249.35
  C 144.60 250.29 145.89 251.61 146.18 253.88
  A 1.00 1.00 0.0 0 1 145.30 255.00
  C 124.51 257.23 106.05 246.45 96.53 227.95
  A 0.63 0.63 0.0 0 1 96.97 227.05
  Q 99.76 226.52 102.06 226.69
  Z"
/>
<path fill="#4db5ff" d="
  M 1061.22 297.45
  C 1063.09 293.80 1058.53 290.78 1055.77 289.96
  Q 1044.96 286.77 1035.61 280.65
  C 1021.39 271.34 1021.22 251.87 1036.82 243.81
  C 1053.25 235.31 1075.48 241.10 1081.74 259.73
  A 0.43 0.43 0.0 0 1 1081.47 260.27
  Q 1073.41 262.95 1065.01 264.29
  Q 1062.87 264.63 1061.72 262.79
  Q 1058.45 257.55 1051.76 258.58
  C 1049.43 258.94 1047.08 260.90 1047.56 263.56
  Q 1048.24 267.36 1052.75 269.03
  C 1066.62 274.19 1088.24 278.80 1084.41 299.22
  C 1079.26 326.65 1031.33 326.66 1022.97 299.71
  A 1.33 1.33 0.0 0 1 1023.77 298.07
  Q 1031.09 295.31 1038.79 293.75
  A 2.20 2.19 67.4 0 1 1041.05 294.69
  C 1042.87 297.45 1045.08 300.13 1048.39 301.05
  C 1052.93 302.31 1058.88 302.03 1061.22 297.45
  Z"
/>
<path fill="#4db5ff" d="
  M 532.78 309.96
  C 505.51 330.79 458.82 316.14 461.15 277.57
  C 462.17 260.55 473.04 247.47 489.25 241.97
  C 511.94 234.28 536.26 249.90 538.67 273.31
  Q 538.98 276.31 538.68 286.89
  A 0.65 0.64 -6.5 0 1 538.19 287.50
  Q 535.21 288.21 533.44 288.19
  Q 509.47 287.86 485.43 288.04
  A 0.72 0.71 -11.2 0 0 484.77 289.02
  C 490.37 303.06 508.83 302.61 520.01 296.82
  A 2.10 2.10 0.0 0 1 522.46 297.19
  L 532.94 307.61
  A 1.57 1.56 -41.3 0 1 532.78 309.96
  Z
  M 485.40 271.48
  C 495.95 271.42 506.39 271.96 516.99 271.50
  A 0.70 0.69 -7.1 0 0 517.64 270.67
  Q 516.86 266.81 513.40 264.10
  C 503.93 256.71 489.40 258.79 484.94 270.83
  A 0.48 0.48 0.0 0 0 485.40 271.48
  Z"
/>
<path fill="#4db5ff" d="
  M 667.48 312.71
  C 651.45 325.14 627.38 319.67 616.94 302.53
  C 608.56 288.76 608.06 269.33 617.77 255.98
  C 629.52 239.82 650.81 234.44 667.48 246.95
  A 0.54 0.54 0.0 0 0 668.33 246.63
  L 669.23 242.39
  A 0.87 0.86 3.1 0 1 670.00 241.71
  Q 680.38 240.63 690.77 241.42
  A 1.12 1.12 0.0 0 1 691.77 242.26
  C 692.47 245.00 692.02 247.66 692.02 249.90
  Q 691.98 282.24 692.01 316.25
  A 1.74 1.74 0.0 0 1 690.39 317.99
  Q 681.56 318.59 671.72 318.05
  C 668.91 317.90 668.10 316.20 668.58 313.65
  A 0.76 0.73 28.2 0 0 668.37 312.99
  L 668.12 312.74
  A 0.50 0.48 -41.6 0 0 667.48 312.71
  Z
  M 669.4251 277.0346
  A 16.51 16.51 0.0 0 0 653.0018 260.4384
  L 649.9019 260.4222
  A 16.51 16.51 0.0 0 0 633.3056 276.8455
  L 633.2749 282.7254
  A 16.51 16.51 0.0 0 0 649.6982 299.3216
  L 652.7981 299.3378
  A 16.51 16.51 0.0 0 0 669.3944 282.9145
  L 669.4251 277.0346
  Z"
/>
<path fill="#4db5ff" d="
  M 821.23 257.16
  Q 821.26 257.95 821.64 257.25
  C 826.55 248.09 833.89 241.33 844.65 240.32
  C 846.70 240.13 849.57 239.57 851.70 240.47
  A 2.17 2.16 -78.4 0 1 853.02 242.48
  L 852.89 260.28
  Q 852.87 262.58 850.58 262.38
  C 834.72 260.97 820.64 272.12 820.67 288.49
  Q 820.70 301.76 821.05 315.69
  Q 821.10 317.86 818.94 317.99
  Q 808.76 318.62 798.66 317.88
  A 1.04 1.03 1.8 0 1 797.70 316.86
  Q 797.46 281.98 797.81 247.00
  Q 797.84 243.96 798.19 242.14
  A 0.67 0.66 3.5 0 1 798.79 241.61
  Q 809.07 240.79 819.35 241.61
  A 1.49 1.49 0.0 0 1 820.73 243.04
  L 821.23 257.16
  Z"
/>
<path fill="#4db5ff" d="
  M 887.21 288.23
  C 886.16 289.86 891.70 295.97 892.92 296.85
  C 900.73 302.48 914.35 301.00 922.43 296.93
  A 2.27 2.26 -36.1 0 1 925.02 297.33
  L 934.50 306.62
  Q 936.01 308.09 934.77 309.80
  C 931.92 313.68 923.52 316.89 918.97 317.97
  C 891.97 324.34 862.51 309.18 863.32 278.83
  C 864.03 252.32 890.79 233.66 915.84 242.14
  C 936.46 249.12 942.15 265.83 941.23 286.05
  A 1.02 0.98 74.5 0 1 940.80 286.84
  Q 938.82 288.19 935.68 288.17
  Q 911.97 288.03 888.16 287.72
  A 1.11 1.10 16.5 0 0 887.21 288.23
  Z
  M 888.00 271.76
  L 919.45 271.69
  A 0.70 0.70 0.0 0 0 920.11 270.79
  C 915.38 255.70 893.33 256.53 887.37 270.30
  Q 887.14 270.85 887.31 271.14
  A 1.08 0.47 65.5 0 0 888.00 271.76
  Z"
/>
<path fill="#4db5ff" d="
  M 986.08 290.75
  C 972.40 285.29 951.47 278.99 954.16 259.36
  C 955.50 249.57 963.97 242.91 973.35 240.81
  C 988.02 237.51 1005.20 244.12 1010.14 259.44
  A 0.76 0.76 0.0 0 1 1009.60 260.41
  L 994.49 264.15
  Q 991.95 264.78 990.64 262.51
  C 986.38 255.16 972.05 258.70 976.85 265.89
  Q 978.37 268.18 980.99 269.01
  C 989.37 271.69 1001.51 275.47 1007.27 280.92
  C 1014.10 287.38 1015.22 297.50 1010.60 305.69
  C 1003.30 318.64 984.23 322.28 971.11 318.17
  Q 958.66 314.27 952.06 301.78
  Q 950.48 298.80 953.63 297.62
  Q 960.56 295.01 967.72 293.70
  A 2.31 2.30 -19.2 0 1 970.15 294.87
  C 978.61 310.50 999.44 296.07 986.08 290.75
  Z"
/>
<path fill="#4db5ff" d="
  M 207.4492 302.3388
  A 4.01 4.01 0.0 0 1 203.4322 306.3418
  L 75.2924 306.1181
  A 4.01 4.01 0.0 0 1 71.2894 302.1012
  L 71.3508 266.8812
  A 4.01 4.01 0.0 0 1 75.3678 262.8782
  L 203.5076 263.1019
  A 4.01 4.01 0.0 0 1 207.5106 267.1188
  L 207.4492 302.3388
  Z
  M 103.95 288.11
  C 102.48 288.39 98.18 280.49 97.55 279.47
  Q 95.98 276.93 94.64 279.59
  C 93.83 281.18 90.62 288.61 88.61 288.04
  A 0.73 0.72 -86.3 0 1 88.10 287.45
  L 85.54 270.26
  A 0.76 0.75 -7.6 0 0 84.71 269.63
  L 79.44 270.18
  A 1.43 1.43 0.0 0 0 78.18 271.80
  L 81.77 296.98
  Q 82.04 298.90 83.98 298.81
  L 89.89 298.51
  A 3.04 3.02 15.2 0 0 92.25 297.17
  L 95.40 292.45
  A 0.96 0.95 45.6 0 1 97.00 292.47
  L 100.38 297.80
  A 1.19 1.17 78.6 0 0 101.17 298.33
  Q 105.24 299.07 109.41 298.69
  A 0.83 0.83 0.0 0 0 110.14 298.03
  Q 112.62 285.12 113.86 272.02
  A 1.48 1.47 9.2 0 0 112.72 270.45
  L 108.17 269.42
  A 1.63 1.63 0.0 0 0 106.19 270.84
  L 104.49 287.53
  A 0.66 0.66 0.0 0 1 103.95 288.11
  Z
  M 132.24 288.31
  A 0.47 0.47 0.0 0 1 131.52 288.39
  L 131.17 288.06
  A 1.08 1.08 0.0 0 1 130.83 287.32
  Q 130.46 278.63 128.47 270.16
  A 0.74 0.74 0.0 0 0 127.63 269.60
  L 121.93 270.51
  A 0.72 0.72 0.0 0 0 121.33 271.32
  Q 122.76 282.04 124.18 292.76
  Q 124.54 295.48 125.52 298.08
  A 0.76 0.75 80.2 0 0 126.21 298.57
  L 133.31 298.72
  A 1.23 1.21 21.2 0 0 134.24 298.32
  Q 136.17 296.22 137.36 293.59
  C 139.44 289.03 142.77 296.41 143.87 298.02
  A 1.18 1.16 74.6 0 0 144.75 298.53
  L 152.47 299.04
  A 0.87 0.87 0.0 0 0 153.39 298.29
  L 157.08 271.66
  A 0.71 0.71 0.0 0 0 156.68 270.92
  Q 153.60 269.47 150.21 269.79
  A 0.66 0.65 0.5 0 0 149.62 270.36
  L 147.57 287.26
  A 0.98 0.95 -79.2 0 1 146.39 288.09
  C 146.04 288.00 141.34 280.46 140.89 279.85
  Q 139.19 277.55 137.64 279.95
  L 132.24 288.31
  Z
  M 174.23 286.78
  L 172.21 271.60
  Q 171.90 269.31 169.62 269.66
  L 165.30 270.32
  A 0.97 0.97 0.0 0 0 164.49 271.41
  L 167.99 296.78
  Q 168.24 298.54 170.00 298.74
  Q 173.80 299.19 177.46 298.48
  A 1.18 1.17 8.4 0 0 178.25 297.90
  L 181.02 292.90
  Q 182.10 290.95 183.34 292.80
  L 186.87 298.06
  A 1.09 1.09 0.0 0 0 187.74 298.55
  L 195.71 298.78
  A 0.81 0.79 4.8 0 0 196.53 298.10
  L 200.27 271.73
  A 1.21 1.21 0.0 0 0 199.22 270.36
  L 193.54 269.64
  A 0.67 0.66 6.7 0 0 192.79 270.23
  L 190.89 287.41
  A 1.00 0.99 2.3 0 1 189.92 288.30
  C 189.12 288.31 184.39 280.40 183.61 279.49
  Q 181.95 277.56 180.66 279.75
  L 176.27 287.20
  Q 174.65 289.94 174.23 286.78
  Z"
/>
<path fill="#4db5ff" d="
  M 241.36 277.43
  A 0.82 0.82 0.0 0 1 240.60 276.92
  C 237.26 268.78 247.81 269.65 251.91 270.20
  A 1.42 1.38 73.6 0 1 252.83 270.72
  Q 255.02 273.43 254.07 276.98
  A 0.74 0.73 -81.9 0 1 253.35 277.53
  L 241.36 277.43
  Z"
/>
<path fill="#4db5ff" d="
  M 215.76 313.27
  A 0.94 0.94 0.0 0 1 214.88 312.38
  C 214.38 300.16 220.79 290.21 232.21 285.77
  C 235.15 284.63 238.53 284.55 241.74 284.48
  Q 243.75 284.43 243.75 286.45
  L 243.76 298.72
  A 1.57 1.57 0.0 0 1 242.81 300.16
  C 236.35 302.93 237.60 306.72 236.08 312.64
  A 0.68 0.68 0.0 0 1 235.46 313.16
  Q 225.62 313.87 215.76 313.27
  Z"
/>
<path fill="#4db5ff" d="
  M 259.12 313.14
  A 1.08 1.08 0.0 0 1 258.06 311.98
  Q 258.57 303.85 251.72 299.87
  A 1.89 1.88 14.5 0 1 250.79 298.30
  L 250.44 286.25
  A 1.47 1.46 -3.3 0 1 251.78 284.75
  C 268.19 283.34 279.08 295.73 279.50 311.76
  A 1.67 1.66 90.0 0 1 277.80 313.47
  L 259.12 313.14
  Z"
/>
<rect fill="#4db5ff" x="-3.81" y="-10.56" transform="translate(247.14,316.43) rotate(-0.7)" width="7.62" height="21.12" rx="3.64"/>
<path fill="#4db5ff" d="
  M 214.81 335.18
  Q 215.05 328.32 215.00 322.20
  Q 214.98 320.31 216.87 320.31
  L 235.28 320.29
  A 0.65 0.65 0.0 0 1 235.92 320.82
  C 237.15 327.38 237.51 333.54 245.83 334.27
  Q 254.46 335.02 257.55 326.54
  C 258.08 325.09 258.04 323.10 258.50 321.66
  A 2.11 2.11 0.0 0 1 260.55 320.20
  L 278.41 320.51
  A 0.92 0.92 0.0 0 1 279.32 321.41
  C 279.55 329.14 280.09 338.61 278.48 345.34
  C 276.83 352.28 271.25 362.71 263.74 365.14
  A 0.88 0.86 -32.3 0 1 262.88 364.96
  C 260.77 363.03 258.79 360.39 256.33 359.19
  Q 242.33 352.34 231.95 364.62
  A 1.62 1.61 36.7 0 1 229.83 364.92
  Q 214.12 354.54 214.81 335.18
  Z"
/>
<path fill="#4db5ff" d="
  M 239.68 369.44
  Q 237.14 368.86 238.90 366.93
  C 243.09 362.35 252.91 361.31 255.94 368.40
  A 0.71 0.71 0.0 0 1 255.46 369.36
  Q 247.58 371.25 239.68 369.44
  Z"
/>
<rect fill="#4db5ff" x="913.43" y="457.50" width="222.38" height="1.00" rx="0.27"/>
</svg>
