<?xml version="1.0" encoding="UTF-8" standalone="no"?>
<!DOCTYPE svg PUBLIC "-//W3C//DTD SVG 1.1//EN" "http://www.w3.org/Graphics/SVG/1.1/DTD/svg11.dtd">
<svg xmlns="http://www.w3.org/2000/svg" version="1.1" viewBox="0 0 1169 461">
<path fill="#ffffff" d="
  M 149.94 164.98
  L 149.96 169.96
  Q 149.96 171.72 148.28 172.21
  C 140.85 174.42 134.60 175.33 132.68 184.28
  Q 132.23 186.38 131.63 188.63
  Q 130.98 191.09 128.44 190.89
  Q 121.40 190.32 115.81 194.33
  C 110.73 197.96 110.18 204.23 102.96 205.48
  Q 98.58 206.23 94.88 206.24
  A 1.65 1.64 2.4 0 1 93.23 204.45
  Q 94.42 190.37 103.20 179.99
  Q 121.27 158.64 149.29 164.18
  A 0.82 0.81 -84.4 0 1 149.94 164.98
  Z"
/>
<path fill="#ffffff" d="
  M 173.23 238.87
  A 1.15 1.15 0.0 0 1 173.42 240.64
  Q 165.46 248.69 154.67 252.29
  A 0.60 0.60 0.0 0 1 153.92 251.93
  Q 151.53 245.52 145.27 242.75
  Q 143.05 241.77 143.04 239.34
  Q 142.91 217.72 122.89 216.48
  C 118.97 216.23 115.70 217.63 111.93 218.82
  C 107.71 220.16 98.80 220.57 94.54 219.41
  A 1.05 1.03 -88.2 0 1 93.81 218.62
  L 92.85 213.78
  A 1.47 1.47 0.0 0 1 94.29 212.02
  C 101.04 211.99 107.95 213.01 113.41 208.19
  C 118.90 203.37 118.04 199.01 126.85 198.45
  Q 130.93 198.19 134.16 196.65
  C 140.37 193.69 137.78 186.17 142.23 182.20
  C 145.05 179.69 149.32 180.54 152.43 178.34
  Q 157.91 174.46 157.43 167.62
  A 0.66 0.66 0.0 0 1 158.37 166.98
  Q 174.44 174.50 181.94 190.58
  Q 182.45 191.68 181.25 191.55
  Q 173.48 190.72 169.62 196.68
  C 168.47 198.47 168.13 200.83 167.40 203.00
  A 1.80 1.69 -12.9 0 1 166.86 203.80
  Q 164.61 205.72 162.42 207.67
  C 156.28 213.13 155.95 222.43 160.13 228.96
  C 162.77 233.08 168.82 236.01 173.23 238.87
  Z"
/>
<path fill="#ffffff" d="
  M 183.86 198.46
  A 2.02 2.01 -86.2 0 1 185.29 200.10
  Q 187.77 216.94 180.09 232.02
  A 1.52 1.51 25.0 0 1 178.15 232.72
  C 170.48 229.42 159.93 223.20 166.91 213.15
  C 168.36 211.06 172.10 209.94 173.55 206.87
  Q 174.72 204.39 175.58 200.19
  A 2.29 2.29 0.0 0 1 177.20 198.45
  Q 180.53 197.51 183.86 198.46
  Z"
/>
<path fill="#ffffff" d="
  M 248.35 204.92
  C 260.05 205.02 275.72 204.29 278.84 218.88
  C 282.04 233.85 267.47 239.05 255.66 244.59
  C 248.82 247.80 250.80 256.70 250.68 262.52
  A 0.62 0.61 85.5 0 1 250.18 263.12
  Q 247.14 263.70 244.31 262.58
  A 0.95 0.94 7.8 0 1 243.71 261.80
  C 241.50 241.32 251.54 239.17 266.81 231.22
  C 273.86 227.55 274.50 218.14 267.77 214.29
  Q 265.24 212.85 259.58 212.82
  Q 231.29 212.69 203.00 212.77
  Q 200.05 212.78 194.58 212.30
  A 0.94 0.93 -7.2 0 1 193.77 211.68
  Q 192.81 209.03 193.41 206.22
  A 0.80 0.79 -84.9 0 1 194.16 205.59
  Q 221.29 204.67 248.35 204.92
  Z"
/>
<path fill="#ffffff" d="
  M 421.78 272.50
  Q 421.75 268.46 420.14 272.17
  L 400.70 316.92
  A 1.45 1.43 -80.8 0 1 399.52 317.78
  Q 390.15 318.75 380.76 317.85
  A 1.36 1.35 81.6 0 1 379.64 317.01
  Q 370.30 294.51 360.35 272.35
  Q 359.95 271.45 359.60 271.07
  Q 358.76 270.13 358.75 271.39
  L 358.55 316.96
  A 1.32 1.31 0.0 0 1 357.23 318.27
  L 334.86 318.17
  A 0.87 0.87 0.0 0 1 333.99 317.30
  L 334.02 216.73
  Q 334.03 214.50 336.26 214.50
  L 356.15 214.50
  A 2.30 2.29 77.8 0 1 358.24 215.86
  L 389.59 285.78
  Q 389.95 286.60 390.41 285.83
  C 392.53 282.26 394.50 278.78 396.21 274.87
  Q 409.18 245.09 422.67 215.71
  A 1.80 1.78 10.2 0 1 424.16 214.68
  Q 434.84 213.92 445.51 214.60
  A 0.90 0.90 0.0 0 1 446.36 215.50
  L 446.25 317.64
  A 0.57 0.57 0.0 0 1 445.68 318.21
  L 422.99 318.15
  A 0.92 0.92 0.0 0 1 422.08 317.24
  L 421.78 272.50
  Z"
/>
<path fill="#ffffff" d="
  M 709.94 317.96
  A 1.00 1.00 0.0 0 1 709.00 316.96
  L 709.01 216.12
  A 1.40 1.40 0.0 0 1 710.34 214.72
  Q 728.50 213.77 746.17 214.61
  C 765.29 215.53 780.24 223.69 783.78 244.00
  C 787.31 264.23 774.16 280.37 754.43 283.43
  Q 744.81 284.92 734.13 284.40
  A 1.55 1.55 0.0 0 0 732.50 285.95
  L 732.50 317.36
  A 0.65 0.65 0.0 0 1 731.89 318.01
  Q 720.92 318.61 709.94 317.96
  Z
  M 760.63 252.24
  C 763.14 234.87 745.09 235.94 733.05 236.55
  A 0.49 0.49 0.0 0 0 732.58 237.04
  L 732.26 263.52
  A 0.59 0.59 0.0 0 0 732.81 264.12
  C 743.54 264.88 758.65 265.97 760.63 252.24
  Z"
/>
<path fill="#ffffff" d="
  M 583.94 241.18
  L 598.78 241.37
  A 0.97 0.97 0.0 0 1 599.74 242.34
  L 599.76 259.17
  A 0.94 0.93 -0.3 0 1 598.83 260.10
  L 584.13 260.31
  A 0.87 0.87 0.0 0 0 583.27 261.18
  Q 583.20 276.84 583.28 292.74
  C 583.33 301.27 593.44 299.22 598.59 298.24
  A 1.33 1.33 0.0 0 1 600.16 299.53
  L 600.27 315.61
  A 1.80 1.79 82.9 0 1 598.91 317.37
  C 581.00 321.83 560.73 319.74 560.36 295.81
  C 560.19 284.57 561.23 272.16 559.81 261.10
  A 0.92 0.92 0.0 0 0 558.95 260.30
  L 550.70 259.90
  A 1.26 1.26 0.0 0 1 549.50 258.64
  L 549.50 242.10
  A 0.59 0.59 0.0 0 1 550.07 241.51
  L 558.32 241.16
  A 1.76 1.76 0.0 0 0 560.00 239.44
  L 560.35 224.57
  A 1.58 1.58 0.0 0 1 561.93 223.03
  L 582.15 223.07
  A 1.08 1.08 0.0 0 1 583.23 224.15
  L 583.29 240.52
  A 0.66 0.66 0.0 0 0 583.94 241.18
  Z"
/>
<path fill="#ffffff" d="
  M 102.06 226.68
  Q 109.95 227.27 117.21 224.50
  C 124.71 221.63 131.80 224.42 134.77 231.85
  C 136.88 237.15 134.31 242.04 138.45 246.71
  C 141.17 249.78 145.71 249.19 146.17 254.25
  A 0.54 0.54 0.0 0 1 145.71 254.84
  C 124.71 257.77 106.26 246.37 96.58 228.02
  A 0.68 0.68 0.0 0 1 97.02 227.04
  Q 99.34 226.48 102.06 226.68
  Z"
/>
<path fill="#ffffff" d="
  M 1034.42 279.83
  C 1023.08 271.40 1021.12 253.73 1033.80 245.56
  C 1050.30 234.93 1074.52 239.55 1081.64 259.31
  A 0.88 0.88 0.0 0 1 1081.08 260.45
  Q 1074.10 262.65 1066.98 263.97
  C 1061.36 265.02 1062.39 262.25 1059.15 260.02
  Q 1054.50 256.84 1049.56 259.47
  Q 1046.84 260.93 1047.51 263.95
  Q 1048.30 267.53 1051.79 268.78
  C 1065.08 273.56 1085.69 277.49 1084.63 296.34
  C 1084.08 306.13 1077.23 313.74 1068.22 317.20
  C 1051.45 323.65 1028.91 318.51 1023.01 299.74
  A 1.57 1.57 0.0 0 1 1024.08 297.76
  L 1038.61 293.60
  A 2.14 2.13 67.7 0 1 1041.07 294.63
  C 1042.64 297.51 1045.33 300.15 1048.55 301.15
  C 1052.67 302.44 1059.42 301.91 1061.24 297.18
  C 1062.51 293.88 1059.99 291.91 1057.08 290.74
  C 1049.22 287.59 1041.65 285.21 1034.42 279.83
  Z"
/>
<path fill="#ffffff" d="
  M 512.64 318.93
  C 491.17 322.47 466.84 311.84 462.10 288.57
  C 458.86 272.65 464.34 257.72 477.16 248.14
  C 491.46 237.45 511.93 237.21 525.81 248.94
  C 537.71 258.99 539.88 272.03 538.65 286.91
  A 0.68 0.67 87.8 0 1 538.10 287.51
  Q 534.85 288.06 527.75 288.04
  Q 506.53 287.96 485.87 288.02
  A 1.03 1.03 0.0 0 0 484.93 289.46
  C 489.25 299.31 498.52 301.05 508.20 300.36
  C 512.44 300.07 516.60 298.30 520.71 296.81
  A 1.74 1.73 -32.5 0 1 522.53 297.21
  L 532.76 307.39
  Q 534.31 308.93 532.54 310.21
  C 526.39 314.65 520.15 317.69 512.64 318.93
  Z
  M 485.57 271.48
  C 495.92 271.42 506.15 271.98 516.55 271.51
  A 1.04 1.04 0.0 0 0 517.51 270.19
  C 516.02 264.96 511.72 262.10 506.65 260.52
  C 498.02 257.82 488.50 262.02 484.94 270.54
  A 0.68 0.68 0.0 0 0 485.57 271.48
  Z"
/>
<path fill="#ffffff" d="
  M 668.22 246.80
  L 669.28 242.35
  A 0.88 0.87 3.6 0 1 670.05 241.68
  C 674.19 241.29 686.60 239.75 691.57 242.07
  A 0.74 0.74 0.0 0 1 692.01 242.76
  L 691.97 316.08
  Q 691.97 318.12 689.93 318.12
  L 670.55 318.12
  A 1.61 1.60 -4.4 0 1 668.96 316.76
  L 668.31 312.68
  Q 668.20 311.95 667.64 312.44
  C 655.16 323.35 636.31 320.81 624.24 311.00
  C 609.36 298.90 606.72 274.35 616.12 258.30
  C 626.61 240.39 650.43 234.05 667.56 247.04
  A 0.42 0.42 0.0 0 0 668.22 246.80
  Z
  M 669.5782 277.2736
  A 16.57 16.57 0.0 0 0 653.2411 260.4738
  L 650.1014 260.4300
  A 16.57 16.57 0.0 0 0 633.3017 276.7670
  L 633.2218 282.4864
  A 16.57 16.57 0.0 0 0 649.5589 299.2862
  L 652.6986 299.3300
  A 16.57 16.57 0.0 0 0 669.4983 282.9930
  L 669.5782 277.2736
  Z"
/>
<path fill="#ffffff" d="
  M 821.29 256.76
  Q 821.32 257.70 821.79 256.88
  C 828.10 245.68 837.34 239.14 850.62 240.15
  Q 853.00 240.33 853.00 242.71
  L 853.00 261.04
  A 1.38 1.38 0.0 0 1 851.50 262.41
  C 836.26 261.05 820.75 270.87 820.81 287.30
  C 820.85 296.98 821.90 307.86 820.61 317.35
  A 0.67 0.66 -87.9 0 1 819.99 317.93
  Q 809.21 318.65 798.41 317.89
  A 0.72 0.72 0.0 0 1 797.73 317.17
  L 797.80 243.16
  A 1.67 1.66 88.1 0 1 799.34 241.51
  Q 809.66 240.81 819.97 241.66
  A 0.85 0.84 1.2 0 1 820.75 242.46
  L 821.29 256.76
  Z"
/>
<path fill="#ffffff" d="
  M 881.55 312.56
  C 868.15 304.15 862.12 291.18 863.60 275.46
  C 865.93 250.66 892.38 234.19 915.86 242.06
  C 936.55 248.99 942.36 266.27 941.04 286.46
  A 1.21 1.21 0.0 0 1 940.03 287.58
  C 938.01 287.92 935.73 288.23 933.57 288.20
  Q 912.55 287.86 891.52 288.03
  C 890.46 288.04 888.79 287.60 887.44 288.08
  A 0.77 0.75 67.4 0 0 887.02 289.13
  C 894.21 303.93 910.33 301.89 923.02 296.76
  A 1.64 1.63 -33.8 0 1 924.77 297.10
  L 934.73 306.86
  Q 936.46 308.56 934.60 310.12
  C 919.76 322.56 896.99 322.24 881.55 312.56
  Z
  M 888.57 271.76
  L 919.23 271.68
  A 0.81 0.81 0.0 0 0 920.01 270.66
  C 917.91 262.72 909.28 259.19 901.82 259.83
  Q 892.20 260.66 887.44 269.87
  Q 886.93 270.86 887.54 271.38
  A 1.59 1.56 -24.1 0 0 888.57 271.76
  Z"
/>
<path fill="#ffffff" d="
  M 977.31 266.69
  C 978.04 267.74 982.42 269.57 984.35 270.17
  C 991.84 272.50 1003.99 276.49 1008.89 282.60
  C 1017.48 293.30 1013.13 308.13 1001.60 314.51
  C 984.03 324.23 958.85 320.60 951.71 300.00
  A 1.46 1.46 0.0 0 1 952.49 298.19
  Q 958.87 295.34 966.26 293.98
  C 970.65 293.18 970.89 296.72 973.26 298.96
  C 982.18 307.42 998.59 295.75 986.01 290.69
  C 976.40 286.83 966.74 283.99 959.45 276.56
  C 953.15 270.14 952.50 259.60 956.77 252.05
  Q 959.96 246.42 967.48 242.96
  C 983.21 235.72 1003.74 241.89 1009.99 258.85
  A 1.21 1.20 72.1 0 1 1009.19 260.43
  Q 1003.12 262.10 996.25 263.77
  C 990.41 265.19 991.35 262.07 987.99 259.90
  C 983.08 256.72 972.07 259.15 977.31 266.69
  Z"
/>
<path fill="#ffffff" d="
  M 207.49 302.14
  A 4.09 4.09 0.0 0 1 203.40 306.23
  L 75.42 306.23
  A 4.09 4.09 0.0 0 1 71.33 302.14
  L 71.33 267.08
  A 4.09 4.09 0.0 0 1 75.42 262.99
  L 203.40 262.99
  A 4.09 4.09 0.0 0 1 207.49 267.08
  L 207.49 302.14
  Z
  M 96.69 292.03
  L 100.60 298.09
  A 1.01 0.98 -13.9 0 0 101.39 298.55
  L 108.03 298.92
  Q 109.93 299.03 110.29 297.17
  Q 112.71 284.76 113.85 272.17
  A 1.77 1.77 0.0 0 0 112.35 270.27
  L 107.40 269.54
  A 1.00 0.99 -82.6 0 0 106.26 270.42
  L 104.43 287.93
  Q 104.31 289.11 103.52 288.22
  Q 100.19 284.45 97.99 279.94
  Q 96.54 276.96 94.63 279.67
  C 92.85 282.17 92.11 285.72 89.58 287.88
  Q 88.36 288.93 88.11 287.34
  L 85.52 270.31
  A 0.80 0.80 0.0 0 0 84.64 269.64
  L 78.67 270.34
  A 0.65 0.65 0.0 0 0 78.10 271.08
  L 81.84 297.60
  A 1.43 1.43 0.0 0 0 83.32 298.83
  L 89.94 298.53
  A 2.77 2.75 -74.0 0 0 92.10 297.32
  L 95.70 292.02
  A 0.59 0.59 0.0 0 1 96.69 292.03
  Z
  M 137.91 292.67
  Q 139.11 290.60 140.38 292.63
  L 143.54 297.65
  A 1.91 1.89 75.6 0 0 145.03 298.54
  L 152.61 299.06
  A 0.72 0.72 0.0 0 0 153.37 298.44
  L 157.12 271.60
  A 0.75 0.74 -75.8 0 0 156.65 270.80
  Q 153.48 269.59 150.10 269.83
  A 0.57 0.56 1.2 0 0 149.57 270.33
  L 147.69 286.55
  Q 147.34 289.55 145.67 287.03
  L 140.65 279.46
  Q 139.22 277.31 137.84 279.49
  L 132.57 287.80
  A 0.86 0.86 0.0 0 1 131.67 288.18
  C 131.23 288.09 128.75 271.13 128.55 270.21
  A 0.76 0.76 0.0 0 0 127.69 269.62
  L 121.91 270.50
  A 0.75 0.75 0.0 0 0 121.28 271.35
  C 122.87 282.30 122.82 290.16 125.46 297.99
  A 0.72 0.72 0.0 0 0 126.11 298.48
  L 132.22 298.79
  Q 134.30 298.90 135.34 297.10
  L 137.91 292.67
  Z
  M 183.70 293.15
  L 186.74 298.10
  A 0.83 0.81 74.8 0 0 187.39 298.48
  L 195.05 298.93
  A 1.39 1.39 0.0 0 0 196.50 297.78
  Q 198.26 287.51 199.53 277.25
  Q 200.02 273.22 199.91 270.98
  A 0.63 0.63 0.0 0 0 199.35 270.38
  L 193.44 269.69
  A 0.64 0.64 0.0 0 0 192.73 270.26
  L 190.89 287.25
  Q 190.60 289.97 189.11 287.67
  L 184.17 280.04
  Q 182.19 276.99 180.37 280.13
  L 176.25 287.22
  A 1.14 1.07 -57.6 0 1 174.68 287.62
  C 174.19 287.27 172.25 272.62 171.84 270.58
  A 0.88 0.87 -1.4 0 0 171.11 269.89
  Q 167.89 269.42 164.86 270.59
  A 0.63 0.62 -14.7 0 0 164.46 271.26
  L 168.00 296.81
  Q 168.28 298.80 170.29 298.81
  L 176.59 298.85
  A 1.24 1.24 0.0 0 0 177.53 298.42
  Q 179.46 296.15 180.51 293.44
  Q 181.81 290.08 183.70 293.15
  Z"
/>
<path fill="#ffffff" d="
  M 240.45 276.68
  Q 239.64 273.80 241.15 271.32
  A 1.31 1.30 6.4 0 1 241.86 270.76
  C 246.07 269.44 256.98 268.25 254.10 276.81
  A 1.26 1.26 0.0 0 1 252.88 277.66
  L 241.40 277.41
  A 1.02 1.02 0.0 0 1 240.45 276.68
  Z"
/>
<path fill="#ffffff" d="
  M 216.31 313.50
  A 1.36 1.36 0.0 0 1 214.94 312.21
  C 214.09 296.15 227.16 282.65 243.20 284.87
  A 0.64 0.64 0.0 0 1 243.75 285.50
  L 243.75 298.91
  A 0.74 0.74 0.0 0 1 243.32 299.58
  C 236.87 302.57 237.20 306.41 236.15 312.70
  A 0.80 0.80 0.0 0 1 235.37 313.37
  L 216.31 313.50
  Z"
/>
<path fill="#ffffff" d="
  M 259.59 313.20
  A 1.51 1.51 0.0 0 1 258.08 311.62
  Q 258.43 303.94 252.00 300.06
  A 2.48 2.47 14.9 0 1 250.81 298.02
  L 250.44 285.76
  A 1.02 1.01 -2.0 0 1 251.42 284.72
  C 268.18 284.16 280.34 295.66 279.40 312.65
  A 0.66 0.65 1.4 0 1 278.74 313.27
  L 259.59 313.20
  Z"
/>
<rect fill="#ffffff" x="-3.78" y="-10.54" transform="translate(247.19,316.39) rotate(-0.9)" width="7.56" height="21.08" rx="3.57"/>
<path fill="#ffffff" d="
  M 262.25 364.43
  C 256.09 356.98 246.92 354.39 238.18 359.08
  C 235.59 360.46 233.49 362.83 231.37 364.99
  A 0.88 0.87 -52.2 0 1 230.28 365.13
  C 213.36 354.59 214.80 339.78 215.03 321.84
  A 1.56 1.55 0.4 0 1 216.59 320.31
  L 235.36 320.29
  A 0.68 0.67 -5.1 0 1 236.03 320.84
  C 237.22 327.20 237.54 333.58 245.40 334.32
  C 252.91 335.03 258.04 330.09 258.20 322.50
  Q 258.25 320.16 260.59 320.19
  L 278.64 320.50
  A 0.66 0.65 0.0 0 1 279.29 321.14
  C 279.49 338.69 281.21 353.13 265.21 364.80
  Q 263.55 366.01 262.25 364.43
  Z"
/>
<path fill="#ffffff" d="
  M 239.21 369.33
  A 1.20 1.20 0.0 0 1 238.57 367.38
  Q 244.59 360.25 252.86 365.14
  Q 255.08 366.46 255.76 368.04
  A 1.10 1.09 72.6 0 1 254.98 369.55
  Q 247.07 371.20 239.21 369.33
  Z"
/>
<rect fill="#ffffff" x="913.62" y="457.50" width="222.20" height="1.00" rx="0.27"/>
</svg>
