<?xml version="1.0" encoding="UTF-8" standalone="no"?>
<!DOCTYPE svg PUBLIC "-//W3C//DTD SVG 1.1//EN" "http://www.w3.org/Graphics/SVG/1.1/DTD/svg11.dtd">
<svg xmlns="http://www.w3.org/2000/svg" version="1.1" viewBox="0 0 278 294">
<path fill="#4db5fe" d="
  M 107.65 46.76
  A 1.10 1.09 6.7 0 1 108.50 47.82
  L 108.49 52.85
  Q 108.49 55.14 106.21 55.35
  Q 91.40 56.73 90.31 71.29
  A 2.00 2.00 0.0 0 1 88.48 73.13
  C 76.09 74.14 74.02 76.30 67.08 85.65
  Q 65.60 87.65 63.13 87.92
  L 53.31 89.01
  A 1.17 1.16 86.7 0 1 52.02 87.86
  C 51.93 72.89 61.86 59.45 74.23 51.98
  Q 89.59 42.70 107.65 46.76
  Z"
/>
<path fill="#4db5fe" d="
  M 129.44 77.55
  Q 127.47 79.51 126.91 82.23
  C 126.48 84.38 126.13 86.00 124.23 87.45
  C 117.39 92.66 114.09 98.55 116.72 107.31
  C 119.02 115.01 125.37 117.33 131.46 121.41
  A 1.31 1.31 0.0 0 1 131.67 123.41
  Q 123.87 131.45 113.22 134.97
  A 0.56 0.56 0.0 0 1 112.53 134.65
  C 110.26 129.16 107.87 128.00 103.17 124.82
  Q 101.57 123.74 101.52 121.81
  C 101.43 117.74 101.12 113.14 99.32 109.61
  C 94.46 100.12 82.57 96.77 72.96 100.61
  C 68.37 102.45 64.26 102.49 59.56 102.49
  C 54.29 102.50 51.50 103.28 51.66 96.85
  Q 51.72 94.23 54.32 94.55
  C 58.93 95.11 64.74 95.03 68.99 92.95
  C 72.85 91.07 74.87 87.26 77.52 84.27
  C 82.77 78.32 93.10 83.55 96.74 75.00
  C 97.85 72.42 97.71 67.34 100.95 64.73
  C 103.66 62.56 107.53 63.12 110.53 61.23
  Q 116.25 57.60 115.93 50.81
  A 1.04 1.04 0.0 0 1 117.44 49.83
  Q 132.83 57.47 140.35 72.90
  Q 141.02 74.27 139.50 74.10
  Q 133.57 73.43 129.44 77.55
  Z"
/>
<path fill="#4db5fe" d="
  M 142.21 81.07
  A 1.93 1.93 0.0 0 1 143.71 82.67
  Q 146.16 99.09 138.99 113.93
  Q 138.00 115.98 135.92 115.05
  C 126.08 110.62 116.25 102.03 129.33 92.54
  C 132.47 90.27 133.60 86.60 134.09 83.10
  Q 134.36 81.16 136.29 80.88
  Q 139.28 80.43 142.21 81.07
  Z"
/>
<path fill="#4db5fe" d="
  M 210.25 87.55
  C 222.00 87.61 238.45 89.62 237.63 105.81
  C 237.03 117.78 225.25 121.92 214.77 126.84
  C 207.21 130.39 208.93 137.86 209.30 144.54
  A 0.90 0.89 -13.5 0 1 208.77 145.40
  Q 206.01 146.62 203.08 145.48
  A 2.04 2.03 -79.1 0 1 201.79 143.57
  C 201.88 134.26 202.10 126.02 211.32 121.11
  C 216.30 118.46 226.35 114.59 229.23 110.45
  C 233.74 103.98 228.61 95.52 220.18 95.49
  Q 188.33 95.36 156.48 95.17
  C 151.82 95.14 151.14 94.07 151.77 89.40
  A 1.39 1.39 0.0 0 1 153.11 88.20
  Q 182.37 87.42 210.25 87.55
  Z"
/>
<path fill="#4db5fe" d="
  M 55.43 109.93
  C 61.89 108.17 68.02 110.27 75.28 107.38
  C 84.68 103.64 93.15 108.45 94.08 118.58
  C 94.65 124.78 94.55 129.20 100.87 132.08
  C 103.26 133.17 104.54 134.39 104.63 136.88
  A 0.59 0.58 -5.1 0 1 104.13 137.47
  C 83.37 140.41 64.51 128.87 55.17 110.51
  A 0.42 0.40 -21.6 0 1 55.43 109.93
  Z"
/>
<path fill="#4db5fe" d="
  M 165.87 184.92
  A 4.03 4.03 0.0 0 1 161.84 188.95
  L 33.96 188.95
  A 4.03 4.03 0.0 0 1 29.93 184.92
  L 29.93 149.72
  A 4.03 4.03 0.0 0 1 33.96 145.69
  L 161.84 145.69
  A 4.03 4.03 0.0 0 1 165.87 149.72
  L 165.87 184.92
  Z
  M 53.59 175.63
  Q 54.46 173.62 55.68 175.44
  L 59.11 180.53
  A 1.23 1.20 77.5 0 0 59.90 181.05
  Q 63.96 181.79 68.11 181.45
  A 0.70 0.69 -87.1 0 0 68.72 180.89
  Q 71.20 167.71 72.52 154.36
  A 0.84 0.84 0.0 0 0 72.04 153.53
  Q 68.95 152.11 65.54 152.32
  A 0.66 0.66 0.0 0 0 64.92 152.91
  C 64.71 154.85 63.35 170.52 62.61 170.81
  A 0.71 0.70 59.6 0 1 61.80 170.59
  C 59.93 168.28 57.16 162.33 54.94 161.09
  A 1.14 1.14 0.0 0 0 53.30 161.71
  Q 51.46 167.01 47.68 171.08
  Q 46.96 171.86 46.81 170.81
  L 44.24 153.09
  A 0.82 0.81 -6.4 0 0 43.37 152.40
  L 37.67 152.86
  A 0.73 0.72 87.9 0 0 37.00 153.59
  C 37.02 158.20 38.20 163.21 38.62 167.08
  Q 39.35 173.80 40.71 180.39
  A 0.78 0.78 0.0 0 0 41.25 180.97
  Q 50.20 183.50 53.59 175.63
  Z
  M 104.73 170.52
  L 99.02 161.77
  A 1.40 1.40 0.0 0 0 96.90 161.50
  Q 96.56 161.82 96.12 162.60
  Q 93.65 166.98 90.69 171.04
  A 0.49 0.49 0.0 0 1 90.13 171.20
  C 89.79 171.06 87.57 154.94 87.21 153.01
  A 0.82 0.81 -9.2 0 0 86.29 152.35
  L 80.67 153.14
  A 0.88 0.88 0.0 0 0 79.92 154.13
  L 83.36 179.22
  Q 83.64 181.25 85.69 181.26
  L 90.91 181.26
  Q 93.18 181.26 94.28 179.27
  L 96.32 175.58
  Q 97.45 173.55 98.79 175.45
  L 102.55 180.77
  A 1.29 1.28 -16.3 0 0 103.53 181.30
  L 110.13 181.57
  A 1.93 1.92 -84.9 0 0 112.11 179.91
  L 115.63 154.30
  A 1.03 1.03 0.0 0 0 114.74 153.14
  L 108.85 152.38
  A 0.71 0.70 6.8 0 0 108.06 153.00
  L 106.16 170.18
  Q 105.92 172.35 104.73 170.52
  Z
  M 148.76 170.90
  C 146.96 170.61 143.23 163.54 141.73 161.79
  A 1.43 1.43 0.0 0 0 139.42 161.99
  L 134.63 170.00
  A 1.06 1.05 14.8 0 1 133.74 170.51
  C 132.34 170.52 130.94 156.22 130.61 154.07
  Q 130.32 152.16 128.41 152.39
  L 123.40 153.01
  A 0.67 0.67 0.0 0 0 122.81 153.79
  C 124.52 164.26 124.77 172.38 126.83 180.79
  A 0.85 0.85 0.0 0 0 127.66 181.44
  L 135.57 181.40
  A 1.17 1.16 14.6 0 0 136.56 180.82
  L 139.82 175.24
  A 1.07 1.07 0.0 0 1 141.65 175.21
  L 144.61 179.87
  Q 145.48 181.26 147.13 181.30
  L 154.21 181.49
  A 0.82 0.81 4.7 0 0 155.04 180.79
  L 158.71 154.54
  A 1.33 1.32 7.4 0 0 157.55 153.04
  L 152.03 152.38
  A 0.70 0.69 6.7 0 0 151.26 152.98
  L 149.32 170.48
  A 0.48 0.48 0.0 0 1 148.76 170.90
  Z"
/>
<path fill="#4db5fe" d="
  M 208.90 152.75
  C 212.63 153.59 213.54 156.36 212.45 159.72
  A 0.80 0.80 0.0 0 1 211.69 160.27
  L 200.46 160.20
  A 1.76 1.76 0.0 0 1 198.77 158.93
  C 196.85 152.34 204.71 151.81 208.90 152.75
  Z"
/>
<path fill="#4db5fe" d="
  M 201.24 167.49
  A 1.14 1.14 0.0 0 1 202.23 168.62
  L 202.26 181.28
  A 1.46 1.45 78.9 0 1 201.36 182.63
  C 195.28 185.12 195.55 189.43 194.62 195.16
  A 0.73 0.71 2.0 0 1 193.97 195.75
  Q 184.44 196.61 174.85 196.08
  A 1.71 1.70 -88.9 0 1 173.25 194.41
  C 173.04 179.00 185.15 165.38 201.24 167.49
  Z"
/>
<path fill="#4db5fe" d="
  M 216.46 193.03
  C 216.81 187.33 213.20 185.57 209.63 181.86
  A 1.34 1.30 22.2 0 1 209.27 181.04
  L 208.72 168.78
  A 1.28 1.28 0.0 0 1 209.93 167.44
  C 226.07 166.46 238.65 178.63 237.71 194.88
  A 1.18 1.18 0.0 0 1 236.53 196.00
  L 219.24 195.99
  Q 216.28 195.99 216.46 193.03
  Z"
/>
<rect fill="#4db5fe" x="-3.78" y="-10.44" transform="translate(205.55,199.07) rotate(-0.6)" width="7.56" height="20.88" rx="3.46"/>
<path fill="#4db5fe" d="
  M 235.86 203.23
  A 1.87 1.86 90.0 0 1 237.69 205.07
  C 237.94 220.67 239.14 233.68 226.53 245.27
  Q 224.40 247.22 221.92 247.88
  A 0.88 0.88 0.0 0 1 221.07 247.65
  C 219.20 245.73 217.55 243.47 215.24 242.25
  Q 200.83 234.65 190.31 247.52
  A 1.32 1.32 0.0 0 1 188.58 247.80
  C 172.46 237.65 172.15 221.32 173.57 204.25
  A 1.00 1.00 0.0 0 1 174.48 203.34
  Q 183.99 202.64 193.51 203.18
  A 0.81 0.81 0.0 0 1 194.25 203.78
  C 195.47 208.67 195.36 214.34 201.08 216.31
  C 209.83 219.32 216.11 213.58 216.71 204.96
  Q 216.85 202.93 218.89 202.96
  L 235.86 203.23
  Z"
/>
<path fill="#4db5fe" d="
  M 212.34 248.53
  Q 217.13 251.92 211.31 252.69
  Q 204.58 253.59 198.09 252.26
  Q 195.17 251.66 197.30 249.58
  Q 204.25 242.81 212.34 248.53
  Z"
/>
</svg>
